<?xml version="1.0" encoding="UTF-8" standalone="no"?>
<!-- Created with Inkscape (http://www.inkscape.org/) -->

<svg
   width="640"
   height="640"
   viewBox="0 0 169.33333 169.33333"
   version="1.1"
   id="svg1"
   xml:space="preserve"
   inkscape:export-filename="single-check-full.svg"
   inkscape:export-xdpi="96"
   inkscape:export-ydpi="96"
   sodipodi:docname="double-check-full.svg"
   inkscape:version="1.4.2 (ebf0e940d0, 2025-05-08)"
   xmlns:inkscape="http://www.inkscape.org/namespaces/inkscape"
   xmlns:sodipodi="http://sodipodi.sourceforge.net/DTD/sodipodi-0.dtd"
   xmlns="http://www.w3.org/2000/svg"
   xmlns:svg="http://www.w3.org/2000/svg"><sodipodi:namedview
     id="namedview1"
     pagecolor="#505050"
     bordercolor="#eeeeee"
     borderopacity="1"
     inkscape:showpageshadow="0"
     inkscape:pageopacity="0"
     inkscape:pagecheckerboard="0"
     inkscape:deskcolor="#505050"
     inkscape:document-units="px"
     inkscape:zoom="1.2375"
     inkscape:cx="320.40404"
     inkscape:cy="320"
     inkscape:window-width="1920"
     inkscape:window-height="1008"
     inkscape:window-x="0"
     inkscape:window-y="0"
     inkscape:window-maximized="1"
     inkscape:current-layer="layer1"><inkscape:page
       x="0"
       y="0"
       width="169.33333"
       height="169.33333"
       id="page2"
       margin="0"
       bleed="0" /></sodipodi:namedview><defs
     id="defs1" /><g
     inkscape:label="Layer 1"
     inkscape:groupmode="layer"
     id="layer1"><g
       id="g1"
       transform="translate(2.0052543,-9.6477298)"><path
         fill="#1a5fb4"
         d="m 116.73305,40.25635 c 3.78354,2.751667 4.63021,8.043333 1.87854,11.826874 L 50.878339,145.21656 c -1.455209,2.01084 -3.704167,3.25438 -6.19125,3.46604 -2.487084,0.21167 -4.894792,-0.71437 -6.641042,-2.46062 L 4.1793806,112.35531 c -3.30729097,-3.30729 -3.30729097,-8.67834 0,-11.98563 3.307292,-3.307289 8.6783334,-3.307289 11.9856244,0 L 43.020214,127.2249 104.93264,42.108433 c 2.75166,-3.783541 8.04333,-4.630208 11.82687,-1.878541 z"
         id="path1"
         style="fill:#1f4d87;fill-opacity:1;stroke-width:0.264583" /><path
         fill="#1a5fb4"
         d="m 160.23183,40.256352 c 3.78354,2.751667 4.63021,8.043334 1.87854,11.826875 L 94.376928,145.21656 c -1.455209,2.01084 -3.704167,3.25438 -6.19125,3.46604 -2.487084,0.21167 -4.894792,-0.71437 -6.641042,-2.46062 L 47.67797,112.35531 c -3.307291,-3.30729 -3.307291,-8.67834 0,-11.98562 3.307292,-3.307295 8.678333,-3.307295 11.985624,0 L 86.518803,127.2249 148.43142,42.108435 c 2.75166,-3.783541 8.04333,-4.630208 11.82687,-1.878541 z"
         id="path1-2"
         style="stroke-width:0.264583" /></g></g></svg>
